<svg xmlns="http://www.w3.org/2000/svg" viewBox="-77 -77 512 512">
  <title>Pragnition</title>
  <rect fill="#f5f5f8" x="-77" y="-77" width="512" height="512"/>
  <rect fill="#00194A" x="72" y="0" width="70" height="70" rx="2"/>
  <rect fill="#00194A" x="144" y="0" width="70" height="70" rx="2"/>
  <rect fill="#00194A" x="216" y="0" width="70" height="70" rx="2"/>
  <rect fill="#00194A" x="72" y="72" width="70" height="70" rx="2"/>
  <rect fill="#00194A" x="288" y="72" width="70" height="70" rx="2"/>
  <rect fill="#00194A" x="72" y="144" width="70" height="70" rx="2"/>
  <rect fill="#00194A" x="144" y="144" width="70" height="70" rx="2"/>
  <rect fill="#00194A" x="216" y="144" width="70" height="70" rx="2"/>
  <rect fill="#00194A" x="72" y="216" width="70" height="70" rx="2"/>
  <rect fill="#00194A" x="72" y="288" width="70" height="70" rx="2"/>
  <rect fill="#0099DC" fill-opacity="0.55" x="288" y="0" width="70" height="70" rx="2"/>
  <rect fill="#0099DC" fill-opacity="0.55" x="288" y="144" width="70" height="70" rx="2"/>
  <rect fill="#0099DC" fill-opacity="0.55" x="0" y="0" width="70" height="70" rx="2"/>
  <rect fill="#0099DC" fill-opacity="0.55" x="0" y="288" width="70" height="70" rx="2"/>
  <rect fill="#0099DC" fill-opacity="0.55" x="144" y="288" width="70" height="70" rx="2"/>
  <rect fill="#0099DC" fill-opacity="0.28" x="0" y="144" width="70" height="70" rx="2"/>
  <rect fill="#0099DC" fill-opacity="0.28" x="144" y="216" width="70" height="70" rx="2"/>
  <rect fill="#0099DC" fill-opacity="0.28" x="216" y="288" width="70" height="70" rx="2"/>
</svg>
